<svg width="962" height="742" viewBox="0 0 962 742" fill="none" xmlns="http://www.w3.org/2000/svg">
<g filter="url(#filter0_d_921_1872)">
<path d="M288 482V326H343.5V272H177V326H232.5V482H288ZM416.595 485C462.195 485 485.595 457.1 492.495 434.3H442.095C438.795 437.9 429.795 444.2 416.595 444.2C399.795 444.2 387.495 432.2 385.395 418.1H495.195C495.795 415.4 496.695 409.7 496.695 403.1C496.695 356.9 462.795 323 416.595 323C369.495 323 334.395 358.1 334.395 404C334.395 449.9 369.495 485 416.595 485ZM385.395 389.3C387.795 374.6 399.195 362.6 416.595 362.6C432.495 362.6 443.895 374.6 445.995 389.3H385.395ZM583.87 485.9C631.87 485.9 654.97 462.5 654.97 435.5C654.97 407.9 637.57 390.5 600.97 385.1L578.47 381.8C567.97 380.3 563.77 376.7 563.77 371.6C563.77 366.2 569.47 360.5 582.37 360.5C596.17 360.5 602.77 366.5 602.77 374H653.17C653.17 349.1 629.47 322.1 582.37 322.1C536.17 322.1 512.77 345.5 512.77 372.8C512.77 398.6 530.77 415.4 567.37 421.1L589.27 424.4C600.67 425.9 604.27 429.8 604.27 436.4C604.27 442.1 598.57 447.5 583.87 447.5C567.97 447.5 562.27 440.9 562.27 433.4H511.57C511.57 455.9 531.97 485.9 583.87 485.9ZM777.572 482V434.6H753.572C746.072 434.6 743.072 431.6 743.072 424.1V374.3H777.572V326H743.072V278.3H691.172V326H667.172V374.3H691.172V435.5C691.172 465.2 707.972 482 740.672 482H777.572Z" fill="#1BB647"/>
</g>
<defs>
<filter id="filter0_d_921_1872" x="127" y="232" width="700.572" height="313.9" filterUnits="userSpaceOnUse" color-interpolation-filters="sRGB">
<feFlood flood-opacity="0" result="BackgroundImageFix"/>
<feColorMatrix in="SourceAlpha" type="matrix" values="0 0 0 0 0 0 0 0 0 0 0 0 0 0 0 0 0 0 127 0" result="hardAlpha"/>
<feOffset dy="10"/>
<feGaussianBlur stdDeviation="25"/>
<feComposite in2="hardAlpha" operator="out"/>
<feColorMatrix type="matrix" values="0 0 0 0 0 0 0 0 0 0 0 0 0 0 0 0 0 0 0.25 0"/>
<feBlend mode="normal" in2="BackgroundImageFix" result="effect1_dropShadow_921_1872"/>
<feBlend mode="normal" in="SourceGraphic" in2="effect1_dropShadow_921_1872" result="shape"/>
</filter>
</defs>
</svg>
